<svg width="500" height="500" viewBox="0 0 500 500" fill="none" xmlns="http://www.w3.org/2000/svg">
<rect width="500" height="500" rx="125" fill="white"/>
<path fill-rule="evenodd" clip-rule="evenodd" d="M209.217 95.7684V148.883C209.217 149.153 209.326 149.412 209.521 149.6L237.528 176.784C237.901 177.147 238.401 177.349 238.921 177.349H261.076C261.607 177.349 262.115 177.139 262.49 176.763L289.655 149.599C289.843 149.411 289.948 149.157 289.948 148.892V95.7684L277.765 83.5858C276.984 82.8047 275.718 82.8047 274.937 83.5858L262.754 95.7684V148.306C262.754 148.858 262.307 149.306 261.754 149.306H237.411C236.858 149.306 236.411 148.858 236.411 148.306V95.7684L224.228 83.5858C223.447 82.8047 222.181 82.8047 221.4 83.5858L209.217 95.7684ZM95.7684 289.948H148.883C149.153 289.948 149.412 289.838 149.6 289.644L176.784 261.637C177.147 261.263 177.349 260.764 177.349 260.244V238.089C177.349 237.558 177.139 237.049 176.763 236.674L149.599 209.51C149.411 209.322 149.157 209.217 148.892 209.217H95.7684L83.5858 221.399C82.8047 222.18 82.8047 223.447 83.5858 224.228L95.7684 236.41H148.306C148.858 236.41 149.306 236.858 149.306 237.41V261.754C149.306 262.307 148.858 262.754 148.306 262.754L95.7684 262.754L83.5858 274.937C82.8047 275.718 82.8047 276.984 83.5858 277.765L95.7684 289.948ZM149.835 206.92L112.278 169.362L112.278 152.133C112.278 151.029 113.173 150.133 114.278 150.133H131.506L168.656 187.283C169.046 187.673 169.68 187.673 170.07 187.283L187.284 170.069C187.674 169.679 187.674 169.046 187.284 168.655L150.134 131.505V114.277C150.134 113.172 151.03 112.277 152.134 112.277L169.363 112.277L206.927 149.84C207.114 150.028 207.22 150.282 207.22 150.548L207.22 188.964C207.22 189.495 207.009 190.003 206.634 190.379L190.968 206.044C190.6 206.412 190.104 206.622 189.584 206.63L150.557 207.213C150.287 207.217 150.026 207.111 149.835 206.92ZM330.982 112.181L293.424 149.739C293.233 149.93 293.128 150.19 293.132 150.461L293.714 189.487C293.722 190.007 293.932 190.504 294.3 190.872L309.966 206.538C310.341 206.913 310.849 207.123 311.38 207.123H349.797C350.062 207.123 350.316 207.018 350.504 206.83L388.068 169.267V152.038C388.068 150.933 387.172 150.038 386.068 150.038L368.839 150.038L331.689 187.187C331.299 187.578 330.665 187.578 330.275 187.187L313.061 169.974C312.671 169.583 312.671 168.95 313.061 168.56L350.211 131.41V114.181C350.211 113.077 349.315 112.181 348.211 112.181L330.982 112.181ZM289.948 350.282V403.396L277.765 415.579C276.984 416.36 275.718 416.36 274.937 415.579L262.754 403.396V350.859C262.754 350.306 262.306 349.859 261.754 349.859H237.41C236.858 349.859 236.41 350.306 236.41 350.859V403.396L224.228 415.579C223.447 416.36 222.18 416.36 221.399 415.579L209.217 403.396L209.217 350.273C209.217 350.008 209.322 349.753 209.51 349.566L236.674 322.401C237.049 322.026 237.558 321.815 238.089 321.815H260.244C260.764 321.815 261.263 322.018 261.636 322.38L289.644 349.564C289.838 349.753 289.948 350.011 289.948 350.282ZM403.396 209.217H350.282C350.011 209.217 349.753 209.326 349.564 209.52L322.38 237.528C322.018 237.901 321.815 238.401 321.815 238.921V261.076C321.815 261.606 322.026 262.115 322.401 262.49L349.566 289.655C349.753 289.842 350.008 289.948 350.273 289.948H403.396L415.579 277.765C416.36 276.984 416.36 275.718 415.579 274.937L403.396 262.754H350.859C350.307 262.754 349.859 262.307 349.859 261.754V237.41C349.859 236.858 350.307 236.41 350.859 236.41H403.396L415.579 224.228C416.36 223.447 416.36 222.18 415.579 221.399L403.396 209.217ZM349.329 292.245L386.887 329.803V347.031C386.887 348.136 385.992 349.031 384.887 349.031H367.658L330.509 311.882C330.118 311.491 329.485 311.491 329.095 311.882L311.881 329.095C311.49 329.486 311.49 330.119 311.881 330.51L349.03 367.659V384.888C349.03 385.993 348.135 386.888 347.03 386.888H329.802L292.238 349.324C292.05 349.137 291.945 348.882 291.945 348.617V310.2C291.945 309.67 292.156 309.161 292.531 308.786L308.197 293.12C308.564 292.752 309.061 292.542 309.581 292.535L348.607 291.952C348.878 291.948 349.138 292.054 349.329 292.245ZM170.541 386.791L208.099 349.233C208.29 349.042 208.396 348.782 208.392 348.511L207.809 309.485C207.801 308.965 207.591 308.468 207.224 308.101L191.558 292.435C191.183 292.059 190.674 291.849 190.143 291.849L151.727 291.849C151.462 291.849 151.207 291.954 151.02 292.142L113.456 329.705L113.456 346.934C113.456 348.039 114.351 348.934 115.456 348.934H132.685L169.834 311.785C170.225 311.394 170.858 311.394 171.248 311.785L188.462 328.998C188.853 329.389 188.853 330.022 188.462 330.413L151.313 367.562V384.791C151.313 385.896 152.208 386.791 153.313 386.791H170.541Z" fill="black"/>
</svg>
